<svg xmlns="http://www.w3.org/2000/svg" viewBox="0 0 920 260" role="img" aria-label="Starbyte Quest">
  <defs>
    <linearGradient id="g1" x1="0" x2="1" y1="0" y2="1">
      <stop offset="0" stop-color="#7cf7ff"/>
      <stop offset="1" stop-color="#ff7ad9"/>
    </linearGradient>
    <linearGradient id="g2" x1="0" x2="1" y1="1" y2="0">
      <stop offset="0" stop-color="#ffd86f"/>
      <stop offset="1" stop-color="#7cffb6"/>
    </linearGradient>
    <filter id="shadow" x="-20%" y="-60%" width="140%" height="220%">
      <feDropShadow dx="0" dy="10" stdDeviation="10" flood-color="#000" flood-opacity=".35"/>
    </filter>
  </defs>
  <rect x="0" y="0" width="920" height="260" rx="56" fill="#0b1020"/>
  <g filter="url(#shadow)">
    <circle cx="150" cy="130" r="74" fill="url(#g1)"/>
    <path d="M150 72l18 38 42 6-30 29 7 41-37-20-37 20 7-41-30-29 42-6z" fill="#0b1020" opacity=".95"/>
    <path d="M232 170c26-46 62-70 98-70 42 0 80 30 104 86" fill="none" stroke="url(#g2)" stroke-width="18" stroke-linecap="round"/>
  </g>
  <g font-family="system-ui, -apple-system, Segoe UI, Roboto, Arial" fill="#ffffff">
    <text x="310" y="128" font-size="58" font-weight="1000" letter-spacing=".6">Starbyte</text>
    <text x="310" y="186" font-size="42" font-weight="850" fill="url(#g1)">Quest</text>
    <text x="540" y="186" font-size="24" font-weight="750" fill="#cbd5ff" opacity=".95">Learn • Play • Make</text>
  </g>
</svg>
